<?xml version="1.0" encoding="UTF-8"?>
<svg width="48px" height="48px" viewBox="0 0 48 48" version="1.1" xmlns="http://www.w3.org/2000/svg" xmlns:xlink="http://www.w3.org/1999/xlink">
    <title>Avatar</title>
    <g id="æ§ä»¶" stroke="none" stroke-width="1" fill="none" fill-rule="evenodd">
        <g id="Avatar">
            <circle id="Oval" fill="#3D42DF" cx="24" cy="24" r="24"></circle>
            <g id="Fox_Origami" transform="translate(11.142857, 12.000000)" fill-rule="nonzero">
                <polygon id="Shape" fill="#B3E5FC" points="25.760819 14.790657 25.760819 17.1196146 22.1187334 20.5232416 12.887065 11.3738376 12.887065 4.71981787 19.324454 1.96363096 19.324454 8.41164703"></polygon>
                <polygon id="Shape" fill="#4FC3F7" points="22.1187334 20.5232416 17.3083543 24.986316 6.43738898 14.212223 6.43738898 1.96363096 12.887065 4.71981787 12.887065 11.3738376"></polygon>
                <path d="M17.3042586,24.986316 L13.9345358,28.1321847 C13.343158,28.6837681 12.4207328,28.6837681 11.829355,28.1321847 L0,17.1196146 L0,1.52219454 C0.000669532037,1.01006214 0.261139189,0.532590102 0.693141743,0.251582807 C1.1251443,-0.0294244882 1.67076811,-0.0762969067 2.14511371,0.126849545 L6.43738898,1.96363096 L6.43738898,14.212223 L17.3042586,24.986316 Z" id="Shape" fill="#2196F3"></path>
                <path d="M25.760819,1.52219454 L25.760819,14.790657 L19.324454,8.41164703 L19.324454,1.96363096 L23.6157053,0.126849545 C24.0900509,-0.0762969067 24.6356747,-0.0294244882 25.0676773,0.251582807 C25.4996798,0.532590102 25.7601495,1.01006214 25.760819,1.52219454 L25.760819,1.52219454 Z" id="Shape" fill="#2196F3"></path>
            </g>
        </g>
    </g>
</svg>